<?xml version="1.0" encoding="utf-8"?>
<!-- Generator: Adobe Illustrator 24.3.0, SVG Export Plug-In . SVG Version: 6.00 Build 0)  -->
<svg version="1.1" id="Warstwa_1" xmlns="http://www.w3.org/2000/svg" xmlns:xlink="http://www.w3.org/1999/xlink" x="0px" y="0px"
	 viewBox="0 0 353.34 126.25" style="enable-background:new 0 0 353.34 126.25;" xml:space="preserve">
<style type="text/css">
	.st0{fill:#ECA72C;}
	.st1{fill:#2C9692;}
	.st2{font-family:'Nunito-Black';}
	.st3{font-size:56.2559px;}
	.st4{font-size:16.6289px;}
</style>
<path class="st0" d="M70.37,2.46c-9.82,0-17.78,7.96-17.78,17.78h-0.02v18.03c0,0,0,0.01,0,0.01h0c0,3.63-2.94,6.57-6.57,6.57
	c-3.63,0-6.57-2.94-6.57-6.57h-0.02c0-0.02,0.01-0.04,0.01-0.06V19.76H39.4c-0.26-9.6-8.11-17.3-17.77-17.3
	c-9.82,0-17.78,7.96-17.78,17.78v61.21c0,0.25,0.01,0.49,0.03,0.73c-0.02,0.19-0.03,0.39-0.03,0.59c0,3.1,2.51,5.61,5.61,5.61
	c3.1,0,5.61-2.51,5.61-5.61c0-0.2-0.01-0.4-0.03-0.59c0.02-0.24,0.03-0.48,0.03-0.73V20.25c0-3.63,2.94-6.57,6.57-6.57
	c3.63,0,6.57,2.94,6.57,6.57h0.01v17.99c0,0.02,0.01,0.04,0.01,0.07c0,9.82,7.96,17.78,17.78,17.78c9.82,0,17.78-7.96,17.78-17.78h0
	c0,0,0-0.01,0-0.01V20.25h0.02c0-3.63,2.94-6.57,6.57-6.57c3.63,0,6.57,2.94,6.57,6.57v8.17c0,3.1,2.51,5.61,5.61,5.61
	c3.1,0,5.61-2.51,5.61-5.61v-8.17C88.16,10.43,80.2,2.46,70.37,2.46z"/>
<path class="st1" d="M136.87,20.25c0-9.82-7.96-17.78-17.78-17.78c-9.82,0-17.78,7.96-17.78,17.78v49.57c0,0.27,0.02,0.52,0.06,0.78
	h-0.06c0,3.63-2.94,6.57-6.57,6.57c-3.63,0-6.57-2.94-6.57-6.57H88.1c0.04-0.26,0.06-0.51,0.06-0.78V53.04h-0.03
	c0-3.1-2.51-5.61-5.61-5.61s-5.61,2.51-5.61,5.61c0,0.19,0.01,0.37,0.03,0.55v16.22c0,0.27,0.02,0.52,0.06,0.78h-0.06
	c0,9.82,7.96,17.78,17.78,17.78c9.82,0,17.78-7.96,17.78-17.78h-0.06c0.04-0.26,0.06-0.51,0.06-0.78V20.25
	c0-3.63,2.94-6.57,6.57-6.57c3.63,0,6.57,2.94,6.57,6.57v61.21c0,0.25,0.01,0.49,0.03,0.73c-0.02,0.19-0.03,0.39-0.03,0.59
	c0,3.1,2.51,5.61,5.61,5.61c3.1,0,5.61-2.51,5.61-5.61c0-0.2-0.01-0.4-0.03-0.59c0.02-0.24,0.03-0.48,0.03-0.73V20.25z"/>
<text transform="matrix(1 0 0 1 145.9911 42.4923)" class="st0 st2 st3">Modern</text>
<text transform="matrix(1 0 0 1 145.9911 88.3868)" class="st1 st2 st3">Simple</text>
<text transform="matrix(1 0 0 1 3.8426 113.2208)"><tspan x="0" y="0" class="st1 st2 st4">Studio</tspan><tspan x="52.8" y="0" class="st0 st2 st4"> </tspan><tspan x="57.55" y="0" class="st1 st2 st4">Graficzne</tspan></text>
<text transform="matrix(1 0 0 1 148.0106 113.2208)" class="st0 st2 st4">Klaudia Ryś</text>
</svg>
