<?xml version="1.0" encoding="utf-8"?>

<svg version="1.1" id="Warstwa_1" 
	 xmlns="http://www.w3.org/2000/svg" width="12.001" height="24" viewBox="0 0 75.33 70.92"
	 >
<g id="Group_6" transform="translate(124.819 69.796) rotate(180)">
	<path id="Path_11" class="st0" d="M75.54,33.21c0,2.08,1.69,3.77,3.78,3.77h37.28c2.08,0,3.77-1.69,3.77-3.77
		c0-2.08-1.69-3.77-3.77-3.77l0,0H79.32C77.23,29.43,75.54,31.12,75.54,33.21C75.54,33.21,75.54,33.21,75.54,33.21z"/>
	<path id="Path_12" class="st0" d="M66.28,34.16l20.83-20.83c1.33-1.48,1.21-3.75-0.26-5.08c-1.33-1.47-3.6-1.59-5.07-0.26
		L58.32,31.44c-0.02,0.02-0.04,0.02-0.06,0.04s-0.03,0.04-0.04,0.06L58,31.76c-0.52,0.56-0.83,1.28-0.86,2.04
		c-0.02,0.12-0.04,0.24-0.05,0.36c0.01,0.1,0.02,0.21,0.04,0.31c0.02,0.77,0.33,1.52,0.86,2.08l0.23,0.23
		c0.01,0.02,0.02,0.04,0.04,0.06s0.04,0.02,0.06,0.04L81.7,60.26c1.65,1.3,4.04,1.02,5.34-0.62c1.09-1.38,1.09-3.33,0-4.72
		L66.28,34.16z"/>
</g>
</svg>